<svg width="49" height="49" viewBox="0 0 49 49" fill="none" xmlns="http://www.w3.org/2000/svg">
<path d="M32.1562 17.3293C35.4907 17.3293 38.1939 13.9373 38.1939 9.75309C38.1939 5.56885 35.4907 2.17685 32.1562 2.17685C28.8218 2.17685 26.1186 5.56885 26.1186 9.75309C26.1186 13.9373 28.8218 17.3293 32.1562 17.3293Z" />
<path d="M16.8437 17.3293C20.1782 17.3293 22.8814 13.9373 22.8814 9.75309C22.8814 5.56885 20.1782 2.17685 16.8437 2.17685C13.5093 2.17685 10.8061 5.56885 10.8061 9.75309C10.8061 13.9373 13.5093 17.3293 16.8437 17.3293Z" />
<path d="M5.26367 24.9699C8.17072 24.9699 10.5273 22.6133 10.5273 19.7062C10.5273 16.7992 8.17072 14.4426 5.26367 14.4426C2.35663 14.4426 0 16.7992 0 19.7062C0 22.6133 2.35663 24.9699 5.26367 24.9699Z" />
<path d="M43.7363 24.9699C46.6434 24.9699 49 22.6133 49 19.7062C49 16.7992 46.6434 14.4426 43.7363 14.4426C40.8293 14.4426 38.4727 16.7992 38.4727 19.7062C38.4727 22.6133 40.8293 24.9699 43.7363 24.9699Z" />
<path d="M24.5 21.629C19.0547 21.629 14.9711 23.3429 12.0159 26.8688C9.39824 29.992 7.97657 34.1033 6.60189 38.0137C4.91235 42.8058 9.06854 47.6455 14.087 46.6815C18.2044 45.8896 23.8593 44.5555 31.9416 46.1101C35.0563 46.7091 35.3457 46.8043 36.1926 46.8043C40.6166 46.8041 43.9404 42.3884 42.3979 38.0136C39.6479 30.1904 36.7164 21.629 24.5 21.629ZM28.3281 35.6887H25.9355V38.0812C25.9355 38.874 25.2928 39.5168 24.5 39.5168C23.7072 39.5168 23.0645 38.874 23.0645 38.0812V35.6887H20.6719C19.8791 35.6887 19.2363 35.0459 19.2363 34.2531C19.2363 33.4603 19.8791 32.8176 20.6719 32.8176H23.0645V30.425C23.0645 29.6322 23.7072 28.9894 24.5 28.9894C25.2928 28.9894 25.9355 29.6322 25.9355 30.425V32.8176H28.3281C29.1209 32.8176 29.7637 33.4603 29.7637 34.2531C29.7637 35.0459 29.1209 35.6887 28.3281 35.6887Z" />
</svg>
