<svg width="19" height="12" viewBox="0 0 19 12" fill="none" xmlns="http://www.w3.org/2000/svg">
<path d="M14.3755 2.89699C14.1944 2.42915 13.7404 2.07287 13.1806 1.97931C12.7469 0.82951 11.5174 0 10.07 0C8.59615 0 7.34824 0.860099 6.93705 2.04408C6.68053 1.9865 6.4098 1.95771 6.13295 1.95771C4.6591 1.95771 3.41323 2.81242 3 4H16C15.8473 3.37022 15.2163 2.89519 14.4569 2.89519C14.4305 2.89519 14.402 2.89519 14.3755 2.89699Z"/>
<path clip-rule="evenodd" d="M16.4216 5.17944C16.7305 5.17944 17.0062 5.37382 17.1078 5.66857L18.9593 11.028C19.123 11.5025 18.7727 12 18.273 12H0.726995C0.22734 12 -0.123041 11.5025 0.0407463 11.028L1.88595 5.66857C1.98754 5.37384 2.26328 5.17944 2.5722 5.17944H2.83135H16.1956H16.4216ZM12.7706 10.6789C13.4029 10.6789 13.915 10.1668 13.915 9.52924C13.915 9.19273 13.772 8.89171 13.548 8.6806C13.774 8.46948 13.9171 8.16848 13.9171 7.83404C13.9171 7.19651 13.405 6.6823 12.7727 6.6823C12.273 6.6823 11.8501 6.99793 11.6925 7.45779H7.36972C7.21215 6.99793 6.78921 6.6823 6.28955 6.6823C5.65721 6.6823 5.14511 7.19442 5.14511 7.83195C5.14511 8.16848 5.28817 8.46948 5.51208 8.6806L5.46232 8.73076C5.26536 8.9377 5.14304 9.2178 5.14304 9.52715C5.14304 10.1647 5.65513 10.6789 6.28748 10.6789C6.78715 10.6789 7.21008 10.3633 7.36767 9.9034H11.6904C11.848 10.3633 12.2709 10.6789 12.7706 10.6789Z"/>
</svg>
